<?xml version="1.0" encoding="UTF-8" standalone="no"?>
<!-- Created with Inkscape (http://www.inkscape.org/) -->

<svg
   xmlns:dc="http://purl.org/dc/elements/1.1/"
   xmlns:cc="http://creativecommons.org/ns#"
   xmlns:rdf="http://www.w3.org/1999/02/22-rdf-syntax-ns#"
   xmlns:svg="http://www.w3.org/2000/svg"
   xmlns="http://www.w3.org/2000/svg"
   xmlns:sodipodi="http://sodipodi.sourceforge.net/DTD/sodipodi-0.dtd"
   xmlns:inkscape="http://www.inkscape.org/namespaces/inkscape"
   version="1.1"
   id="svg3680"
   width="26.559999"
   height="33.599998"
   viewBox="0 0 26.559999 33.599998"
   sodipodi:docname="enketo.svg"
   inkscape:version="0.92.1 r15371">
  <metadata
     id="metadata3686">
    <rdf:RDF>
      <cc:Work
         rdf:about="">
        <dc:format>image/svg+xml</dc:format>
        <dc:type
           rdf:resource="http://purl.org/dc/dcmitype/StillImage" />
        <dc:title></dc:title>
      </cc:Work>
    </rdf:RDF>
  </metadata>
  <defs
     id="defs3684">
    <clipPath
       clipPathUnits="userSpaceOnUse"
       id="clipPath3725">
      <g
         id="use3727"
         inkscape:label="Clip">
        <g
           clip-path="url(#clipPath3734)"
           id="g4632">
          <g
             id="g4630"
             inkscape:label="Clip">
            <path
               inkscape:connector-curvature="0"
               id="path4628"
               d="m -12.951251,32.813121 c -1.227931,-1.227931 -0.03466,-3.551455 1.742487,-3.392944 1.2712282,0.113387 1.4626579,0.690853 0.278036,0.838723 -1.023646,0.127776 -0.728686,0.698221 0.361029,0.698221 1.0975056,0 0.8070921,0.742528 -0.391952,1.002141 -0.700625,0.151696 -0.760459,0.211587 -0.239772,0.24 0.948579,0.05176 1.7061717,0.367952 1.7061717,0.712096 0,0.429459 -3.0139747,0.343789 -3.4559997,-0.09824 z m 4.0267254,-0.016 c -0.1752346,-0.508858 -0.064577,-2.309628 0.1813014,-2.950376 0.8063242,-2.101246 4.5872552,0.507132 3.8953026,2.687282 -0.3761257,1.185068 -1.0827324,0.770883 -1.1889305,-0.696906 -0.1575034,-2.176888 -1.8583993,-2.269562 -1.8583993,-0.101254 0,1.408374 -0.671359,2.100595 -1.0292742,1.061254 z m 4.5492741,-1.36 c 0,-1.896288 0.4641878,-2.307408 1.2266883,-1.08645 0.420639,0.673549 0.420639,0.673549 1.1376,0 1.05312996,-0.989365 1.49931996,-0.883378 1.06994996,0.254153 -0.28371696,0.75165 -0.24667796,1.085651 0.195173,1.759999 0.68005,1.037888 -0.01178,1.184176 -0.90941096,0.192298 -0.318556,-0.352 -0.786356,-0.64 -1.039555,-0.64 -0.253199,0 -0.535676,0.288 -0.627726,0.64 -0.368513,1.409197 -1.0527193,0.681261 -1.0527193,-1.12 z m 5.18399926,1.376 c -1.350109,-1.350109 -0.06313,-3.589984 1.95078604,-3.395172 1.199549,0.116036 1.251186,0.693408 0.07516,0.840427 -0.956746,0.119607 -1.097604,0.698745 -0.169949,0.698745 0.863619,0 0.812389,0.53846 -0.08,0.840838 -0.685672,0.232336 -0.675488,0.252436 0.213601,0.421565 0.51348,0.09768 0.99348,0.357597 1.066667,0.577597 0.176873,0.531686 -2.526429,0.54584 -3.05626804,0.016 z M 6.1847479,31.928379 c 0,-0.947075 -0.164532,-1.356795 -0.648962,-1.616055 -0.9733681,-0.52093 -0.451511,-0.955203 1.147848,-0.955203 1.382292,0 1.909276,0.472761 0.941114,0.84428 -0.325871,0.125048 -0.48,0.635586 -0.48,1.589957 0,1.036233 -0.126176,1.405763 -0.48,1.405763 -0.345957,0 -0.48,-0.354304 -0.48,-1.268742 z m 3.211259,0.649779 c -1.176988,-2.199221 0.9395621,-4.104761 3.2097781,-2.889778 0.71502,0.382667 0.873215,2.486488 0.234963,3.124741 -0.648516,0.648515 -3.0599451,0.484035 -3.4447411,-0.234963 z m 2.7087411,-1.301037 c 0,-0.635256 -0.181594,-0.820888 -0.881819,-0.901431 -0.94575,-0.108784 -1.4177681,0.507633 -1.074237,1.402861 0.336283,0.87634 1.956056,0.461114 1.956056,-0.50143 z m -16.1599995,-5.856 c 0,-0.593618 0.6701628,-1.183999 1.3440003,-1.183999 0.665714,0 0.6988,0.13262 0.244741,0.981037 -0.370855,0.692948 -1.5887413,0.848534 -1.5887413,0.202962 z m -2.870479,-2.966676 C -10.749365,20.782079 -11.650171,15.75749 -9.0920715,10.370859 -7.2783791,6.5517377 4.4247478,6.6437427 4.4247478,10.477122 c 0,2.4 0,2.4 -3.59417204,2.56 -5.08026156,0.226156 -5.30580136,0.464619 -5.52582726,5.842459 -0.1775655,4.340028 -0.2426269,4.444304 -2.230479,3.574864 z m 5.6438123,-0.670657 c -0.42202,-0.422019 -0.237499,-5.237479 0.207231,-5.408138 3.05455,-1.172141 7.2597471,0.183036 5.643189,1.818587 -2.202539,2.228418 -5.30687504,4.133097 -5.85042,3.589551 z M 8.2982789,11.569112 C 8.1918369,11.291729 8.1047479,10.05433 8.1047479,8.8193367 8.1047479,5.083354 7.4833839,4.7184593 1.1109068,4.7122218 -4.9021955,4.7063361 -5.1873254,4.596153 -3.3904269,2.9727634 2.7757388,-2.5979972 10.180594,-0.85743391 10.156747,6.1571217 10.146217,9.2555147 8.8542239,13.017881 8.2982789,11.569112 Z"
               style="fill:#000000;stroke-width:0.31999999" />
          </g>
        </g>
      </g>
    </clipPath>
    <clipPath
       clipPathUnits="userSpaceOnUse"
       id="clipPath3734">
      <g
         id="use3736"
         inkscape:label="Clip">
        <path
           inkscape:connector-curvature="0"
           id="path4636"
           d="m -12.951251,32.813121 c -1.227931,-1.227931 -0.03466,-3.551455 1.742487,-3.392944 1.2712282,0.113387 1.4626579,0.690853 0.278036,0.838723 -1.023646,0.127776 -0.728686,0.698221 0.361029,0.698221 1.0975056,0 0.8070921,0.742528 -0.391952,1.002141 -0.700625,0.151696 -0.760459,0.211587 -0.239772,0.24 0.948579,0.05176 1.7061717,0.367952 1.7061717,0.712096 0,0.429459 -3.0139747,0.343789 -3.4559997,-0.09824 z m 4.0267254,-0.016 c -0.1752346,-0.508858 -0.064577,-2.309628 0.1813014,-2.950376 0.8063242,-2.101246 4.5872552,0.507132 3.8953026,2.687282 -0.3761257,1.185068 -1.0827324,0.770883 -1.1889305,-0.696906 -0.1575034,-2.176888 -1.8583993,-2.269562 -1.8583993,-0.101254 0,1.408374 -0.671359,2.100595 -1.0292742,1.061254 z m 4.5492741,-1.36 c 0,-1.896288 0.4641878,-2.307408 1.2266883,-1.08645 0.420639,0.673549 0.420639,0.673549 1.1376,0 1.05312996,-0.989365 1.49931996,-0.883378 1.06994996,0.254153 -0.28371696,0.75165 -0.24667796,1.085651 0.195173,1.759999 0.68005,1.037888 -0.01178,1.184176 -0.90941096,0.192298 -0.318556,-0.352 -0.786356,-0.64 -1.039555,-0.64 -0.253199,0 -0.535676,0.288 -0.627726,0.64 -0.368513,1.409197 -1.0527193,0.681261 -1.0527193,-1.12 z m 5.18399926,1.376 c -1.350109,-1.350109 -0.06313,-3.589984 1.95078604,-3.395172 1.199549,0.116036 1.251186,0.693408 0.07516,0.840427 -0.956746,0.119607 -1.097604,0.698745 -0.169949,0.698745 0.863619,0 0.812389,0.53846 -0.08,0.840838 -0.685672,0.232336 -0.675488,0.252436 0.213601,0.421565 0.51348,0.09768 0.99348,0.357597 1.066667,0.577597 0.176873,0.531686 -2.526429,0.54584 -3.05626804,0.016 z M 6.1847479,31.928379 c 0,-0.947075 -0.164532,-1.356795 -0.648962,-1.616055 -0.9733681,-0.52093 -0.451511,-0.955203 1.147848,-0.955203 1.382292,0 1.909276,0.472761 0.941114,0.84428 -0.325871,0.125048 -0.48,0.635586 -0.48,1.589957 0,1.036233 -0.126176,1.405763 -0.48,1.405763 -0.345957,0 -0.48,-0.354304 -0.48,-1.268742 z m 3.211259,0.649779 c -1.176988,-2.199221 0.9395621,-4.104761 3.2097781,-2.889778 0.71502,0.382667 0.873215,2.486488 0.234963,3.124741 -0.648516,0.648515 -3.0599451,0.484035 -3.4447411,-0.234963 z m 2.7087411,-1.301037 c 0,-0.635256 -0.181594,-0.820888 -0.881819,-0.901431 -0.94575,-0.108784 -1.4177681,0.507633 -1.074237,1.402861 0.336283,0.87634 1.956056,0.461114 1.956056,-0.50143 z m -16.1599995,-5.856 c 0,-0.593618 0.6701628,-1.183999 1.3440003,-1.183999 0.665714,0 0.6988,0.13262 0.244741,0.981037 -0.370855,0.692948 -1.5887413,0.848534 -1.5887413,0.202962 z m -2.870479,-2.966676 C -10.749365,20.782079 -11.650171,15.75749 -9.0920715,10.370859 -7.2783791,6.5517377 4.4247478,6.6437427 4.4247478,10.477122 c 0,2.4 0,2.4 -3.59417204,2.56 -5.08026156,0.226156 -5.30580136,0.464619 -5.52582726,5.842459 -0.1775655,4.340028 -0.2426269,4.444304 -2.230479,3.574864 z m 5.6438123,-0.670657 c -0.42202,-0.422019 -0.237499,-5.237479 0.207231,-5.408138 3.05455,-1.172141 7.2597471,0.183036 5.643189,1.818587 -2.202539,2.228418 -5.30687504,4.133097 -5.85042,3.589551 z M 8.2982789,11.569112 C 8.1918369,11.291729 8.1047479,10.05433 8.1047479,8.8193367 8.1047479,5.083354 7.4833839,4.7184593 1.1109068,4.7122218 -4.9021955,4.7063361 -5.1873254,4.596153 -3.3904269,2.9727634 2.7757388,-2.5979972 10.180594,-0.85743391 10.156747,6.1571217 10.146217,9.2555147 8.8542239,13.017881 8.2982789,11.569112 Z"
           style="fill:#000000;stroke-width:0.31999999" />
      </g>
    </clipPath>
  </defs>
  <sodipodi:namedview
     pagecolor="#ffffff"
     bordercolor="#666666"
     borderopacity="1"
     objecttolerance="10"
     gridtolerance="10"
     guidetolerance="10"
     inkscape:pageopacity="0"
     inkscape:pageshadow="2"
     inkscape:window-width="1920"
     inkscape:window-height="1017"
     id="namedview3682"
     showgrid="false"
     inkscape:zoom="24.82143"
     inkscape:cx="13.301792"
     inkscape:cy="17.18746"
     inkscape:window-x="-8"
     inkscape:window-y="-8"
     inkscape:window-maximized="1"
     inkscape:current-layer="svg3680" />
  <path
     style="fill:#96c93c;fill-opacity:1;stroke-width:0.32112589"
     d="M 0.68477515,32.959615 C -0.52647745,31.706 0.65058593,29.333877 2.4035945,29.495704 c 1.2539614,0.115758 1.4427912,0.705302 0.2742596,0.856265 -1.0097422,0.130449 -0.7187885,0.712825 0.3561252,0.712825 1.082599,0 0.7961296,0.758059 -0.3866282,1.023102 -0.6911087,0.154869 -0.75013,0.216013 -0.2365153,0.24502 0.9356948,0.05284 1.6829977,0.375648 1.6829977,0.72699 0,0.438442 -2.9730372,0.35098 -3.40905835,-0.100295 z"
     id="path3821"
     inkscape:connector-curvature="0" />
  <path
     style="fill:#96c93c;fill-opacity:1;stroke-width:0.32112589"
     d="M 4.6568065,32.94328 C 4.4839526,32.423779 4.5931037,30.585344 4.8356459,29.931194 5.6310179,27.785998 9.3605941,30.448933 8.6780394,32.674683 8.3070232,33.884538 7.6100138,33.46169 7.5052583,31.9632 7.3498935,29.740781 5.6721012,29.646168 5.6721012,31.859829 c 0,1.437831 -0.6622402,2.144531 -1.0152947,1.083451 z"
     id="path3819"
     inkscape:connector-curvature="0" />
  <path
     style="fill:#96c93c;fill-opacity:1;stroke-width:0.32112589"
     d="m 9.1442895,31.554834 c 0,-1.935951 0.4578831,-2.35567 1.2100265,-1.109174 0.414926,0.687637 0.414926,0.687637 1.122148,0 1.038826,-1.010059 1.478956,-0.901855 1.055418,0.259469 -0.279864,0.767371 -0.243328,1.108358 0.192522,1.796811 0.670813,1.059596 -0.01162,1.208944 -0.897059,0.19632 -0.314229,-0.359362 -0.775675,-0.653386 -1.025435,-0.653386 -0.24976,0 -0.5284,0.294024 -0.6192,0.653386 -0.3635069,1.438672 -1.0384205,0.69551 -1.0384205,-1.143426 z"
     id="path3817"
     inkscape:connector-curvature="0" />
  <path
     style="fill:#96c93c;fill-opacity:1;stroke-width:0.32112589"
     d="m 14.257876,32.959615 c -1.331771,-1.378348 -0.06227,-3.665073 1.924289,-3.466186 1.183256,0.118463 1.234192,0.707911 0.07414,0.858005 -0.94375,0.122109 -1.082695,0.71336 -0.16764,0.71336 0.851889,0 0.801354,0.549723 -0.07891,0.858425 -0.676358,0.237196 -0.666313,0.257716 0.2107,0.430383 0.506506,0.09972 0.979986,0.365076 1.052179,0.589678 0.174471,0.542807 -2.492113,0.557257 -3.014756,0.01633 z"
     id="path3815"
     inkscape:connector-curvature="0" />
  <path
     style="fill:#96c93c;fill-opacity:1;stroke-width:0.32112589"
     d="m 19.560856,32.056367 c 0,-0.966884 -0.162297,-1.385174 -0.640148,-1.649856 -0.960147,-0.531826 -0.445378,-0.975182 1.132258,-0.975182 1.363516,0 1.883342,0.482649 0.928331,0.861939 -0.321445,0.127663 -0.473481,0.64888 -0.473481,1.623212 0,1.057907 -0.124462,1.435166 -0.47348,1.435166 -0.341258,0 -0.47348,-0.361714 -0.47348,-1.295279 z"
     id="path3813"
     inkscape:connector-curvature="0" />
  <path
     style="fill:#96c93c;fill-opacity:1;stroke-width:0.32112589"
     d="m 22.728497,32.719737 c -1.161001,-2.24522 0.926801,-4.190616 3.166181,-2.950221 0.705308,0.390671 0.861354,2.538496 0.231771,3.190099 -0.639707,0.662079 -3.018382,0.494159 -3.397952,-0.239878 z"
     id="path3811"
     inkscape:connector-curvature="0" />
  <path
     style="fill:#ffffff;fill-opacity:1;stroke-width:0.32112589"
     d="m 25.678631,31.514878 c 0,-0.648543 -0.179128,-0.838057 -0.869842,-0.920285 -0.932904,-0.111059 -1.398511,0.518251 -1.059646,1.432203 0.331716,0.89467 1.929488,0.470759 1.929488,-0.511918 z"
     id="path3809"
     inkscape:connector-curvature="0" />
  <path
     style="fill:#006780;fill-opacity:1;stroke-width:0.32112589"
     d="M 6.6284525,22.384276 C 2.8567537,20.676931 1.968183,15.547247 4.4915362,10.047949 6.2805944,6.1489477 17.824761,6.2428772 17.824761,10.156435 c 0,2.450198 0,2.450198 -3.545353,2.613545 -5.011258,0.230886 -5.2337346,0.474337 -5.4507722,5.96466 -0.1751532,4.430804 -0.2393305,4.537261 -2.2001833,3.649636 z"
     id="path3805"
     inkscape:connector-curvature="0" />
  <path
     style="fill:#96c93c;fill-opacity:1;stroke-width:0.32112589"
     d="m 12.195607,21.699592 c -0.416288,-0.430846 -0.234273,-5.347027 0.204416,-5.521255 3.013061,-1.196658 7.16114,0.186864 5.56654,1.856624 -2.172623,2.275028 -5.234794,4.219545 -5.770956,3.664631 z"
     id="path3803"
     inkscape:connector-curvature="0" />
  <path
     style="fill:#96c93c;fill-opacity:1;stroke-width:0.32112589"
     d="M 21.353302,12.176135 C 21.248306,11.89295 21.1624,10.629669 21.1624,9.3688455 21.1624,5.5547208 20.549476,5.1821939 14.263554,5.175826 8.3321255,5.1698128 8.0508693,5.0573295 9.8233596,3.399985 15.905773,-2.2872938 23.21005,-0.51032483 23.186527,6.6509477 23.17614,9.8141467 21.901696,13.655206 21.353302,12.176135 Z"
     id="path3690-0"
     inkscape:connector-curvature="0" />
  <path
     style="fill:#b3b3b3;fill-opacity:1;stroke-width:0.04042952"
     d="M 9.8768841,26.631547 C 9.4242877,26.480101 9.0296951,26.183349 8.8817098,25.883129 8.5814839,25.274057 9.1642701,24.536 10.292477,24.096491 c 0.316776,-0.123403 0.415268,-0.126594 0.617159,-0.02 0.321649,0.169833 0.558333,0.693601 0.587551,1.300215 0.03138,0.651465 -0.142894,1.031338 -0.566889,1.235688 -0.250865,0.120908 -0.723623,0.129501 -1.0534139,0.01915 z"
     id="path4640"
     inkscape:connector-curvature="0" />
  <path
     style="fill:#b3b3b3;fill-opacity:1;stroke-width:0.04028777"
     d=""
     id="path4642"
     inkscape:connector-curvature="0" />
</svg>
