<?xml version="1.0" encoding="UTF-8" standalone="no"?>
<!-- Created with Inkscape (http://www.inkscape.org/) -->

<svg
   xmlns:dc="http://purl.org/dc/elements/1.1/"
   xmlns:cc="http://creativecommons.org/ns#"
   xmlns:rdf="http://www.w3.org/1999/02/22-rdf-syntax-ns#"
   xmlns:svg="http://www.w3.org/2000/svg"
   xmlns="http://www.w3.org/2000/svg"
   xmlns:sodipodi="http://sodipodi.sourceforge.net/DTD/sodipodi-0.dtd"
   xmlns:inkscape="http://www.inkscape.org/namespaces/inkscape"
   width="210mm"
   height="297mm"
   viewBox="0 0 210 297"
   version="1.1"
   id="svg3765"
   inkscape:version="0.92.1 r15371"
   sodipodi:docname="enketo 2.svg">
  <defs
     id="defs3759" />
  <sodipodi:namedview
     id="base"
     pagecolor="#ffffff"
     bordercolor="#666666"
     borderopacity="1.0"
     inkscape:pageopacity="0.0"
     inkscape:pageshadow="2"
     inkscape:zoom="0.35"
     inkscape:cx="-84.285714"
     inkscape:cy="561.42857"
     inkscape:document-units="mm"
     inkscape:current-layer="layer1"
     showgrid="false"
     inkscape:window-width="1920"
     inkscape:window-height="1017"
     inkscape:window-x="-8"
     inkscape:window-y="-8"
     inkscape:window-maximized="1" />
  <metadata
     id="metadata3762">
    <rdf:RDF>
      <cc:Work
         rdf:about="">
        <dc:format>image/svg+xml</dc:format>
        <dc:type
           rdf:resource="http://purl.org/dc/dcmitype/StillImage" />
        <dc:title></dc:title>
      </cc:Work>
    </rdf:RDF>
  </metadata>
  <g
     inkscape:label="Capa 1"
     inkscape:groupmode="layer"
     id="layer1">
    <path
       style="fill:#96c93c;fill-opacity:1;stroke-width:2.24256396"
       d="m 24.891506,267.76537 c -8.496454,-8.71565 -0.240597,-25.20749 12.056837,-24.08239 8.796049,0.8048 10.12061,4.90361 1.923725,5.95307 -7.082951,0.90673 -5.042038,4.95592 2.498019,4.95592 7.594008,0 5.584532,5.27032 -2.712045,7.11304 -4.847862,1.07574 -5.261871,1.50227 -1.65907,1.70347 6.563523,0.36752 11.805571,2.61021 11.805571,5.05437 0,3.04803 -20.854691,2.44121 -23.913195,-0.69748 z"
       id="path3799"
       inkscape:connector-curvature="0" />
    <path
       style="fill:#96c93c;fill-opacity:1;stroke-width:2.24256396"
       d="m 52.753725,267.65801 c -1.212397,-3.61165 -0.446934,-16.39312 1.254501,-20.94128 5.579196,-14.91417 31.740718,3.59958 26.952869,19.07389 -2.602626,8.41143 -7.491781,5.47178 -8.226593,-4.94654 -1.089746,-15.45097 -12.858887,-16.10875 -12.858887,-0.71895 0,9.99662 -4.645342,14.90989 -7.12189,7.53261 z"
       id="path3797"
       inkscape:connector-curvature="0" />
    <path
       style="fill:#96c93c;fill-opacity:1;stroke-width:2.24256396"
       d="m 84.231636,258.00503 c 0,-13.45937 3.211889,-16.37755 8.487875,-7.71153 2.910537,4.78074 2.910537,4.78074 7.871429,0 7.28693,-7.0221 10.37428,-6.26989 7.40331,1.80274 -1.96322,5.33525 -1.70693,7.7059 1.35048,12.49228 4.70549,7.36682 -0.0811,8.405 -6.29252,1.36547 -2.20406,-2.49755 -5.441036,-4.54253 -7.192988,-4.54253 -1.751915,0 -3.706518,2.04418 -4.343446,4.54253 -2.549805,10.00224 -7.284115,4.83546 -7.284115,-7.94948 z"
       id="path3795"
       inkscape:connector-curvature="0" />
    <path
       style="fill:#96c93c;fill-opacity:1;stroke-width:2.24256396"
       d="m 120.10143,267.77175 c -9.34184,-9.58295 -0.43674,-25.48112 13.49814,-24.09848 8.30005,0.82356 8.65734,4.92185 0.52015,5.9654 -6.62006,0.84772 -7.59468,4.9594 -1.17604,4.9594 5.97566,0 5.62117,3.82197 -0.55364,5.96809 -4.7444,1.64983 -4.67392,1.79201 1.47811,2.99223 3.55292,0.69212 6.87421,2.53777 7.3806,4.09962 1.22391,3.77395 -17.48118,3.87427 -21.14732,0.10736 z"
       id="path3793"
       inkscape:connector-curvature="0" />
    <path
       style="fill:#96c93c;fill-opacity:1;stroke-width:2.24256396"
       d="m 157.29974,261.49194 c 0,-6.72218 -1.1384,-9.63043 -4.49038,-11.47045 -6.73505,-3.6975 -3.12417,-6.77986 7.94233,-6.77986 9.56451,0 13.21091,3.35546 6.51187,5.99249 -2.25481,0.88796 -3.32128,4.51142 -3.32128,11.28536 0,7.35502 -0.87294,9.97784 -3.32127,9.97784 -2.39368,0 -3.32127,-2.51364 -3.32127,-9.00538 z"
       id="path3791"
       inkscape:connector-curvature="0" />
    <path
       style="fill:#96c93c;fill-opacity:1;stroke-width:2.24256396"
       d="m 179.51949,266.10395 c -8.14398,-15.60978 6.50113,-29.13488 22.20948,-20.51126 4.94748,2.71619 6.04209,17.64888 1.62587,22.17906 -4.48731,4.60289 -21.17279,3.43566 -23.8353,-1.66861 z"
       id="path3789"
       inkscape:connector-curvature="0" />
    <path
       style="fill:#96c93c;fill-opacity:1;stroke-width:2.24256396"
       d="m 198.26214,256.86947 c 0,-4.50899 -1.2566,-5.82671 -6.10157,-6.39837 -6.54397,-0.7726 -9.81001,3.60332 -7.433,9.95744 2.32672,6.21998 13.53457,3.27283 13.53457,-3.55907 z"
       id="path3787"
       inkscape:connector-curvature="0" />
    <path
       style="fill:#96c93c;fill-opacity:1;stroke-width:2.24256396"
       d="m 83.100646,217.59204 c -2.087958,-3.62828 0.734348,-9.83351 11.529698,-13.26489 4.39988,-1.39765 8.213226,6.25433 6.989986,12.96819 -1.729683,9.49389 -14.895741,6.59475 -18.519684,0.29777 z"
       id="path3785"
       inkscape:connector-curvature="0" />
    <path
       style="fill:#96c93c;fill-opacity:1;stroke-width:2.24256396"
       d="M 66.584045,194.24744 C 40.127066,182.37727 33.894101,146.71362 51.594416,108.48028 64.143953,81.372664 145.1217,82.025888 145.1217,109.2341 c 0,17.0348 0,17.0348 -24.86925,18.17037 -35.151977,1.60422 -36.71255,3.29778 -38.234983,41.46889 -1.228607,30.80483 -1.678677,31.54497 -15.433422,25.37381 z"
       id="path3783"
       inkscape:connector-curvature="0" />
    <path
       style="fill:#96c93c;fill-opacity:1;stroke-width:2.24256396"
       d="m 105.63544,189.48735 c -2.92011,-2.99544 -1.64338,-37.17478 1.43389,-38.38599 21.13543,-8.31969 50.23257,1.29839 39.04706,12.90782 -15.24008,15.81715 -36.71998,29.33609 -40.48095,25.47817 z"
       id="path3781"
       inkscape:connector-curvature="0" />
    <path
       style="fill:#96c93c;fill-opacity:1;stroke-width:2.24256396"
       d="m 171.92395,116.98534 c -0.73645,-1.96907 -1.33898,-10.75179 -1.33898,-19.517608 0,-26.517418 -4.29943,-29.10725 -48.39268,-29.151518 C 80.585691,68.262534 78.61277,67.492653 91.046082,55.969873 133.71181,16.429542 184.94842,28.783668 184.78343,78.571972 c -0.0732,21.991808 -9.01259,48.696488 -12.85936,38.413368 z"
       id="path3690"
       inkscape:connector-curvature="0" />
  </g>
</svg>
